<svg xmlns="http://www.w3.org/2000/svg" width="28" height="28" viewBox="0 0 28 28" fill="none">
  <path d="M24.5001 14.2413C24.5001 13.5351 24.4375 12.8646 24.3302 12.212H14.228V16.2439H20.0122C19.7529 17.567 18.993 18.6845 17.8666 19.4444V22.1264H21.3174C23.3379 20.2579 24.5001 17.5044 24.5001 14.2413Z" fill="#4285F4"/>
  <path d="M14.228 24.728C17.1246 24.728 19.5473 23.7625 21.3174 22.1265L17.8666 19.4445C16.9011 20.0882 15.6763 20.4815 14.228 20.4815C11.4298 20.4815 9.06073 18.5952 8.21143 16.0473H4.65332V18.8098C6.41449 22.3142 10.0352 24.728 14.228 24.728Z" fill="#34A853"/>
  <path d="M8.21136 16.0473C7.98787 15.4036 7.87164 14.7152 7.87164 14C7.87164 13.2848 7.99681 12.5964 8.21136 11.9528V9.19031H4.65326C3.92018 10.6386 3.5 12.2657 3.5 14C3.5 15.7344 3.92018 17.3614 4.65326 18.8097L8.21136 16.0473Z" fill="#FBBC05"/>
  <path d="M14.228 7.51852C15.8104 7.51852 17.2229 8.06386 18.3404 9.12772L21.3979 6.07025C19.5473 4.33589 17.1246 3.27203 14.228 3.27203C10.0352 3.27203 6.41449 5.68583 4.65332 9.1903L8.21143 11.9527C9.06073 9.40486 11.4298 7.51852 14.228 7.51852Z" fill="#EA4335"/>
</svg>