<svg width="138" height="40" viewBox="0 0 138 40" fill="none" xmlns="http://www.w3.org/2000/svg">
<g id="weniv-logo">
<g id="Group">
<path id="Vector" d="M33.5289 14.1122V24.885C33.5196 26.7689 32.756 28.5732 31.404 29.9055C30.052 31.2378 28.2209 31.9905 26.3087 32C24.0559 32 22.2121 31.1502 20.7774 29.4507C19.3265 31.1512 17.474 32.001 15.2202 32C13.308 31.9905 11.4769 31.2378 10.1249 29.9055C8.77285 28.5732 8.00924 26.7689 8 24.885V14.1122H11.3793V24.885C11.3813 25.888 11.7866 26.8493 12.5065 27.5586C13.2264 28.2678 14.2021 28.6671 15.2202 28.6691C15.7234 28.6775 16.2231 28.5858 16.6895 28.3995C17.1559 28.2132 17.5794 27.9361 17.9346 27.5849C18.2983 27.2376 18.5877 26.822 18.7856 26.3627C18.9835 25.9033 19.086 25.4096 19.087 24.9106V14.1122H22.4678V24.9106C22.4602 25.4085 22.5561 25.9027 22.7499 26.3627C22.9436 26.8227 23.231 27.2386 23.5943 27.5849C23.9495 27.9361 24.373 28.2132 24.8394 28.3995C25.3058 28.5858 25.8055 28.6775 26.3087 28.6691C27.327 28.6679 28.3032 28.2689 29.0233 27.5595C29.7433 26.85 30.1484 25.8882 30.1496 24.885V14.1122H33.5289Z" fill="#2F80ED"/>
<path id="Vector_2" d="M46.2452 24.7253C46.6076 25.8506 47.3144 26.8379 48.2688 27.5518C49.2482 28.2823 50.4457 28.6725 51.674 28.6616C52.7194 28.6529 53.7504 28.4207 54.6957 27.981C55.7554 27.5091 56.5323 26.9118 57.0265 26.189L59.8174 28.0562C59.0104 29.2338 57.8427 30.184 56.3143 30.9068C54.8732 31.6119 53.2876 31.9833 51.6786 31.9925C50.4822 32.0109 49.2946 31.7875 48.1892 31.336C47.0838 30.8846 46.0841 30.2148 45.2517 29.3678C43.4757 27.6201 42.5882 25.5179 42.5892 23.0614C42.5913 20.6883 43.5491 18.4129 45.2524 16.735C46.9558 15.0571 49.2654 14.1138 51.674 14.1122C54.1674 14.1122 56.3015 14.9866 58.0765 16.7354C58.9361 17.5545 59.6165 18.5384 60.0757 19.6263C60.5349 20.7142 60.7632 21.8833 60.7466 23.0614C60.7473 23.6115 60.6961 24.1605 60.5938 24.7013L46.2452 24.7253ZM51.674 17.4356C50.4456 17.424 49.2479 17.8143 48.2688 18.5454C47.3095 19.2649 46.6021 20.2614 46.2452 21.3959H57.0785C56.7221 20.2615 56.0152 19.265 55.0564 18.5454C54.0849 17.8165 52.8952 17.4261 51.674 17.4356Z" fill="#2F80ED"/>
<path id="Vector_3" d="M69.564 31.9925V23.0614C69.5451 21.8825 69.7716 20.7123 70.2295 19.623C70.6874 18.5337 71.367 17.5484 72.2264 16.7278C74.0024 14.9841 76.1366 14.1122 78.6289 14.1122C81.04 14.1122 83.3523 15.0559 85.0571 16.7356C86.762 18.4153 87.7198 20.6935 87.7198 23.0689V32H84.339V23.0614C84.339 21.5725 83.7387 20.1446 82.6701 19.0919C81.6016 18.0391 80.1523 17.4476 78.6411 17.4476C77.13 17.4476 75.6807 18.0391 74.6121 19.0919C73.5436 20.1446 72.9432 21.5725 72.9432 23.0614V31.9925H69.564Z" fill="#2F80ED"/>
<path id="Vector_4" d="M96.5433 8H99.9226V11.2285H96.5433V8ZM96.5433 14.1047H99.9226V31.9925H96.5433V14.1047Z" fill="#2F80ED"/>
<path id="Vector_5" d="M130 14.1122L122.318 30.3271C121.809 31.4364 120.929 31.9915 119.68 31.9925C118.431 31.9935 117.544 31.4384 117.018 30.3271L109.336 14.1122H113.075L119.246 27.1302C119.284 27.2127 119.345 27.2827 119.422 27.3319C119.499 27.381 119.589 27.4071 119.681 27.4071C119.773 27.4071 119.863 27.381 119.94 27.3319C120.017 27.2827 120.078 27.2127 120.116 27.1302L126.288 14.1122H130Z" fill="#2F80ED"/>
</g>
</g>
</svg>
