<svg width="430" height="333" viewBox="0 0 430 333" fill="none" xmlns="http://www.w3.org/2000/svg">
<g clip-path="url(#clip0_3_239)">
<path d="M186.37 77.65C186.37 77.65 190.69 56.55 186.54 75.85C186.54 75.85 176.31 43.47 158.1 47.41C142.69 50.75 142.67 76.33 142.67 76.33C142.67 76.33 125.28 57.35 110.61 68.03C91.3197 82.08 107.58 111.26 107.58 111.26C82.5797 108.91 90.0897 130.24 90.0897 130.24C90.0897 130.24 58.9397 118.05 51.7597 138.63C44.3397 159.89 68.0097 170.44 68.0097 170.44C68.0097 170.44 40.7297 172.19 41.0497 192.61C41.3697 213.03 65.5697 215.74 65.5697 215.74C65.5697 215.74 36.1197 225.03 42.5397 245.29C47.1697 259.92 75.3497 254.5 75.3497 254.5C75.3497 254.5 56.8597 273.33 64.4197 286.88C70.1597 297.17 91.9397 289.99 91.9397 289.99C91.9397 289.99 82.2097 315.27 94.4897 322.13C106.77 328.99 122.25 308.41 122.25 308.41C122.25 308.41 116.56 323.89 127.4 330.83C139.36 338.49 149.52 322.4 149.52 322.4L271.93 321.34C271.93 321.34 282.03 337.04 294.25 330.3C306.9 323.33 300.27 306.81 300.27 306.81C300.27 306.81 315.82 316.73 327.39 312.23C344.62 305.53 331.94 277.05 331.94 277.05C331.94 277.05 356.11 287.82 365.02 270.31C371.04 258.49 353.23 244.26 353.23 244.26C353.23 244.26 374.05 243.3 377.73 229.66C381.42 216.02 358.47 204.74 358.01 204.77C358.01 204.77 384.1 203.14 382.79 183.56C381.3 161.36 351.79 167.68 351.79 167.68C361.92 148.85 342.22 147.74 342.22 147.74C342.22 147.74 361.68 125.09 351.31 111.69C340.94 98.29 319.25 109.94 319.25 109.94C319.25 109.94 331.85 82.02 314.46 67.51C295.28 51.49 270.75 74.53 270.75 74.53C270.75 74.53 275.34 47.33 259.42 43.42C240.18 38.69 234.21 66.87 234.21 66.87C234.21 66.87 233.57 40.07 215.07 40.87C196.57 41.67 198.64 73.41 198.64 73.41C188.75 62.48 186.52 75.8 186.52 75.8L186.37 77.65Z" fill="#DF5F14"/>
<path d="M253.25 290.19H145.5V347.62H253.25V290.19Z" fill="white"/>
<path d="M222.86 251.07C217.59 250.11 212.7 247.18 210.3 242.36C215.83 242.16 220.26 237.67 220.26 233.57C220.26 229.36 215.63 226.56 209.92 226.56C204.2 226.56 199.58 229.36 199.58 233.57C199.58 237.68 204 242.17 209.54 242.36C207.14 247.18 202.25 250.1 196.98 251.07C196.98 251.07 198.62 263.79 209.92 263.79C221.22 263.79 222.86 251.07 222.86 251.07ZM99.1198 276.34C93.3398 269.04 89.0698 261 86.4798 252.34C84.5598 245.94 83.5698 239.21 83.5698 232.22C83.5698 210.68 93.0398 190.9 109.73 175.32C108.43 162.74 107.07 129.72 127.4 122.73C145.84 116.38 161.5 135.17 168.6 145.77C170.94 145.23 173.32 144.74 175.73 144.3C177.73 154.61 183.97 171.62 203.44 177.43C223.79 183.5 240.17 172.65 240.17 172.65C235.77 170.8 232.43 168.13 229.93 165.39C242.63 167.37 253.88 160.62 253.88 160.62C246.56 156.45 243.64 149.33 242.47 144.01C245.44 144.53 248.37 145.12 251.23 145.77C258.34 135.17 274 116.38 292.43 122.73C312.76 129.72 311.4 162.74 310.1 175.32C326.8 190.9 336.26 210.69 336.26 232.22C336.26 282.47 284.88 318.93 209.91 318.93C159.49 318.92 119.73 302.43 99.1198 276.34ZM239.26 219.51C239.26 214.46 235.16 210.35 230.11 210.35C225.05 210.35 220.95 214.46 220.95 219.51C220.95 224.56 225.05 228.66 230.11 228.66C235.16 228.66 239.26 224.57 239.26 219.51ZM198.89 219.51C198.89 214.46 194.79 210.35 189.73 210.35C184.68 210.35 180.58 214.46 180.58 219.51C180.58 224.56 184.68 228.66 189.73 228.66C194.79 228.66 198.89 224.57 198.89 219.51Z" fill="#F5D975"/>
<path d="M230.11 210.35C235.16 210.35 239.26 214.46 239.26 219.51C239.26 224.56 235.16 228.66 230.11 228.66C225.05 228.66 220.95 224.56 220.95 219.51C220.95 214.46 225.05 210.35 230.11 210.35ZM236.06 222.53C236.06 220.6 234.49 219.04 232.56 219.04C230.63 219.04 229.07 220.61 229.07 222.53C229.07 224.46 230.64 226.03 232.56 226.03C234.49 226.03 236.06 224.46 236.06 222.53ZM230.38 215.82C230.38 214.36 229.2 213.18 227.74 213.18C226.28 213.18 225.1 214.36 225.1 215.82C225.1 217.29 226.28 218.47 227.74 218.47C229.2 218.47 230.38 217.29 230.38 215.82Z" fill="#231815"/>
<path d="M232.56 219.04C234.49 219.04 236.06 220.61 236.06 222.53C236.06 224.46 234.49 226.03 232.56 226.03C230.63 226.03 229.07 224.46 229.07 222.53C229.06 220.6 230.63 219.04 232.56 219.04Z" fill="white"/>
<path d="M227.74 213.18C229.2 213.18 230.38 214.36 230.38 215.82C230.38 217.29 229.2 218.47 227.74 218.47C226.28 218.47 225.1 217.29 225.1 215.82C225.1 214.37 226.29 213.18 227.74 213.18Z" fill="white"/>
<path d="M222.86 251.07C222.86 251.07 221.22 263.79 209.92 263.79C198.61 263.79 196.98 251.07 196.98 251.07C202.25 250.11 207.14 247.18 209.54 242.36C209.67 242.37 209.8 242.37 209.92 242.37C210.05 242.37 210.18 242.37 210.3 242.36C212.71 247.19 217.6 250.11 222.86 251.07Z" fill="#D45055"/>
<path d="M209.92 226.56C215.63 226.56 220.26 229.36 220.26 233.57C220.26 237.68 215.83 242.17 210.3 242.36C210.16 242.09 210.04 241.81 209.92 241.53C209.8 241.81 209.67 242.08 209.54 242.36C204 242.16 199.58 237.67 199.58 233.57C199.58 229.36 204.2 226.56 209.92 226.56Z" fill="#231815"/>
<path d="M210.3 242.36C210.17 242.37 210.04 242.37 209.92 242.37C209.79 242.37 209.66 242.37 209.54 242.36C209.68 242.09 209.8 241.81 209.92 241.53C210.04 241.82 210.17 242.09 210.3 242.36Z" fill="#231815"/>
<path d="M189.73 210.35C194.79 210.35 198.89 214.46 198.89 219.51C198.89 224.56 194.79 228.66 189.73 228.66C184.68 228.66 180.58 224.56 180.58 219.51C180.58 214.46 184.68 210.35 189.73 210.35ZM195.4 222.53C195.4 220.6 193.83 219.04 191.9 219.04C189.97 219.04 188.41 220.61 188.41 222.53C188.41 224.46 189.98 226.03 191.9 226.03C193.83 226.03 195.4 224.46 195.4 222.53ZM189.73 215.82C189.73 214.36 188.55 213.18 187.09 213.18C185.63 213.18 184.45 214.36 184.45 215.82C184.45 217.29 185.63 218.47 187.09 218.47C188.55 218.47 189.73 217.29 189.73 215.82Z" fill="#231815"/>
<path d="M191.9 219.04C193.83 219.04 195.4 220.61 195.4 222.53C195.4 224.46 193.83 226.03 191.9 226.03C189.97 226.03 188.41 224.46 188.41 222.53C188.41 220.6 189.97 219.04 191.9 219.04Z" fill="white"/>
<path d="M187.09 213.18C188.55 213.18 189.73 214.36 189.73 215.82C189.73 217.29 188.55 218.47 187.09 218.47C185.63 218.47 184.45 217.29 184.45 215.82C184.45 214.37 185.63 213.18 187.09 213.18Z" fill="white"/>
<path d="M175.74 144.28C173.33 144.72 170.95 145.22 168.61 145.75C161.5 135.15 145.84 116.36 127.41 122.71C107.08 129.7 108.44 162.72 109.74 175.3C93.0396 190.88 83.5796 210.67 83.5796 232.2C83.5796 239.19 84.5796 245.93 86.4896 252.32C89.0796 260.98 93.3496 269.02 99.1296 276.32C119.74 302.41 159.5 318.9 209.93 318.9C284.9 318.9 336.28 282.44 336.28 232.19C336.28 210.65 326.81 190.87 310.12 175.29C311.42 162.71 312.78 129.69 292.45 122.7C274.01 116.35 258.35 135.14 251.25 145.74C248.39 145.08 245.46 144.5 242.49 143.98" stroke="#231815" stroke-width="8" stroke-miterlimit="10" stroke-linecap="round" stroke-linejoin="round"/>
<path d="M116.82 239.05L86.48 252.34" stroke="#231815" stroke-width="8" stroke-miterlimit="10" stroke-linecap="round" stroke-linejoin="round"/>
<path d="M99.1196 276.34L127.46 260.42" stroke="#231815" stroke-width="8" stroke-miterlimit="10" stroke-linecap="round" stroke-linejoin="round"/>
<path d="M302.91 239.05L333.25 252.34" stroke="#231815" stroke-width="8" stroke-miterlimit="10" stroke-linecap="round" stroke-linejoin="round"/>
<path d="M320.62 276.34L292.27 260.42" stroke="#231815" stroke-width="8" stroke-miterlimit="10" stroke-linecap="round" stroke-linejoin="round"/>
<path d="M134.26 140.7C134.26 140.7 143.09 146 142.77 160.6" stroke="#231815" stroke-width="8" stroke-miterlimit="10" stroke-linecap="round" stroke-linejoin="round"/>
<path d="M285.58 140.7C285.58 140.7 276.75 146 277.07 160.6" stroke="#231815" stroke-width="8" stroke-miterlimit="10" stroke-linecap="round" stroke-linejoin="round"/>
<path d="M209.92 241.54C209.8 241.82 209.67 242.09 209.54 242.37C207.14 247.19 202.25 250.11 196.98 251.08C193.94 251.63 190.78 251.53 187.9 250.76C182.18 249.23 177.75 245.31 175.06 240.08" stroke="#231815" stroke-width="8" stroke-miterlimit="10" stroke-linecap="round" stroke-linejoin="round"/>
<path d="M209.92 241.54C210.04 241.82 210.17 242.09 210.3 242.37C212.7 247.19 217.59 250.11 222.86 251.08C225.9 251.63 229.06 251.53 231.94 250.76C237.66 249.23 242.08 245.31 244.78 240.08" stroke="#231815" stroke-width="8" stroke-miterlimit="10" stroke-linecap="round" stroke-linejoin="round"/>
<path d="M223.24 154.12C223.24 154.12 224.9 159.89 229.93 165.37C232.43 168.11 235.77 170.78 240.17 172.63C240.17 172.63 223.79 183.48 203.44 177.41C183.97 171.61 177.74 154.59 175.73 144.28C174.78 139.42 174.78 136.04 174.78 136.04" stroke="#231815" stroke-width="8" stroke-miterlimit="10" stroke-linecap="round" stroke-linejoin="round"/>
<path d="M241.72 137.08C241.72 137.08 241.61 140.04 242.47 143.99C243.64 149.31 246.56 156.43 253.88 160.6C253.88 160.6 242.63 167.35 229.93 165.37" stroke="#231815" stroke-width="8" stroke-miterlimit="10" stroke-linecap="round" stroke-linejoin="round"/>
<path d="M68.5098 99.29C68.5098 99.29 87.1298 104.27 97.2398 120.79" stroke="#231815" stroke-width="8" stroke-miterlimit="10" stroke-linecap="round" stroke-linejoin="round"/>
<path d="M120.67 309.21C120.49 309.7 115.11 324.89 125.86 331.76C137.89 339.46 148.11 323.27 148.11 323.27" stroke="#231815" stroke-width="8" stroke-miterlimit="10" stroke-linecap="round" stroke-linejoin="round"/>
<path d="M88.3098 129.94C88.3098 129.94 56.9698 117.67 49.7598 138.37C42.2998 159.76 66.1098 170.38 66.1098 170.38C66.1098 170.38 38.6598 172.14 38.9798 192.69C39.2998 213.23 63.6498 215.96 63.6498 215.96C63.6498 215.96 34.0298 225.31 40.4798 245.69C45.1298 260.41 73.4898 254.96 73.4898 254.96C73.4898 254.96 54.8798 273.9 62.4998 287.54C68.2798 297.89 90.1798 290.67 90.1798 290.67C90.1798 290.67 80.3898 316.11 92.7498 323.01C104.94 329.82 120.25 309.76 120.66 309.22" stroke="#231815" stroke-width="8" stroke-miterlimit="10" stroke-linecap="round" stroke-linejoin="round"/>
<path d="M188.4 42.64C188.4 42.64 189.52 55.79 185.35 75.22C185.35 75.22 175.06 42.64 156.74 46.6C141.23 49.96 141.22 75.7 141.22 75.7C141.22 75.7 123.73 56.6 108.96 67.36C89.55 81.49 105.91 110.85 105.91 110.85" stroke="#231815" stroke-width="8" stroke-miterlimit="10" stroke-linecap="round" stroke-linejoin="round"/>
<path d="M197.55 72.81C197.55 72.81 195.46 40.87 214.08 40.07C232.7 39.27 233.34 66.23 233.34 66.23C233.34 66.23 239.34 37.88 258.7 42.64C274.71 46.57 270.09 73.93 270.09 73.93C270.09 73.93 294.76 50.76 314.06 66.87C331.56 81.47 318.88 109.56 318.88 109.56C318.88 109.56 340.7 97.85 351.14 111.32C361.57 124.8 341.99 147.59 341.99 147.59" stroke="#231815" stroke-width="8" stroke-miterlimit="10" stroke-linecap="round" stroke-linejoin="round"/>
<path d="M346.8 156.9C346.8 156.9 360.13 149.52 376.82 153.11" stroke="#231815" stroke-width="8" stroke-miterlimit="10" stroke-linecap="round" stroke-linejoin="round"/>
<path d="M299.79 307.61C299.99 308.13 306.24 324.33 293.72 331.24C281.42 338.01 271.26 322.22 271.26 322.22" stroke="#231815" stroke-width="8" stroke-miterlimit="10" stroke-linecap="round" stroke-linejoin="round"/>
<path d="M351.62 167.66C351.62 167.66 381.3 161.3 382.8 183.63C384.13 203.33 357.88 204.96 357.88 204.96C358.34 204.93 381.42 216.27 377.71 230C374 243.72 353.06 244.68 353.06 244.68C353.06 244.68 370.98 258.98 364.92 270.89C355.95 288.5 331.63 277.66 331.63 277.66C331.63 277.66 344.39 306.31 327.05 313.05C315.57 317.51 300.2 307.86 299.78 307.6C299.77 307.59 299.77 307.59 299.77 307.59" stroke="#231815" stroke-width="8" stroke-miterlimit="10" stroke-linecap="round" stroke-linejoin="round"/>
<path d="M196.98 251.07C196.98 251.07 198.62 263.79 209.92 263.79C221.22 263.79 222.86 251.07 222.86 251.07" stroke="#231815" stroke-width="8" stroke-miterlimit="10" stroke-linecap="round" stroke-linejoin="round"/>
<path d="M174.88 354.88C174.88 354.88 208.38 290.49 172.27 276.34C131.49 260.36 112.16 320.98 113.41 351.14C113.92 363.33 119.18 375.54 132.68 377.06" fill="#DF5F14"/>
<path d="M174.88 354.88C174.88 354.88 208.38 290.49 172.27 276.34C131.49 260.36 112.16 320.98 113.41 351.14C113.92 363.33 119.18 375.54 132.68 377.06" stroke="#231815" stroke-width="8" stroke-miterlimit="10"/>
<path d="M244.96 354.88C244.96 354.88 211.46 290.49 247.57 276.34C288.35 260.36 307.68 320.98 306.43 351.14C305.92 363.33 300.66 375.54 287.16 377.06" fill="#DF5F14"/>
<path d="M244.96 354.88C244.96 354.88 211.46 290.49 247.57 276.34C288.35 260.36 307.68 320.98 306.43 351.14C305.92 363.33 300.66 375.54 287.16 377.06" stroke="#231815" stroke-width="8" stroke-miterlimit="10"/>
<path d="M209.92 318.93V373.88" stroke="#231815" stroke-width="8" stroke-miterlimit="10" stroke-linecap="round" stroke-linejoin="round"/>
<path d="M145.5 239.78C154.27 239.78 161.38 235.245 161.38 229.65C161.38 224.055 154.27 219.52 145.5 219.52C136.729 219.52 129.62 224.055 129.62 229.65C129.62 235.245 136.729 239.78 145.5 239.78Z" fill="#D7715F"/>
<path d="M274.34 239.78C283.11 239.78 290.22 235.245 290.22 229.65C290.22 224.055 283.11 219.52 274.34 219.52C265.57 219.52 258.46 224.055 258.46 229.65C258.46 235.245 265.57 239.78 274.34 239.78Z" fill="#D7715F"/>
</g>
<defs>
<clipPath id="clip0_3_239">
<rect width="429.96" height="381.04" fill="white"/>
</clipPath>
</defs>
</svg>
