<svg width="564" height="112" viewBox="0 0 564 112" fill="none" xmlns="http://www.w3.org/2000/svg">
<g clip-path="url(#clip0_3_0)">
<path d="M489.215 89.1151L542.019 87.1215L532.689 38.7144L472.67 35.2961L489.215 89.1151Z" fill="#FCD821"/>
<path d="M143.997 22.9974L181.255 52.7441L220.611 103.832L144.34 107.969L143.997 22.9974Z" fill="#FCD821"/>
<path d="M208.098 20.279L245.244 50.0632L243.403 102.639L205.764 65.4802L208.098 20.279Z" fill="#FCD821"/>
<path d="M392.767 9.37395L430.026 39.1206L464.42 90.4774L391.369 94.4395L392.767 9.37395Z" fill="#FCD821"/>
<path d="M144.016 22.9662L115.482 24.5285V25.3409L67.8578 27.9469V29.8217L34.4001 31.6527V59.4684L41.9579 59.0559V109.825L71.5961 108.207V80.416L72.189 80.3848V112.006L145.202 108.013V81.5034L144.022 81.5659V64.1491L151.736 63.7241V36.8896L144.022 37.3146V22.9662H144.016Z" fill="#FCEE21"/>
<path d="M342.628 60.2683C342.946 60.2683 343.271 60.262 343.608 60.2433C347.926 60.0058 351.577 58.2622 354.161 55.2001C356.564 52.3504 357.831 48.8321 357.831 45.02V39.9705C357.831 36.046 356.489 32.5276 353.949 29.7904C352.027 27.7219 348.557 25.3159 342.89 25.6284C338.571 25.8659 334.92 27.6094 332.336 30.6716C329.934 33.5213 328.667 37.0396 328.667 40.8517V45.9011C328.667 49.8319 330.009 53.3503 332.549 56.0812C334.352 58.0248 337.541 60.2683 342.628 60.2683ZM341.766 40.8454C341.766 39.9955 341.997 39.5456 342.347 39.1331C342.447 39.0144 342.646 38.7769 343.601 38.7269C344.019 38.7019 344.282 38.7394 344.388 38.7707C344.531 38.9332 344.718 39.2019 344.718 39.9705V45.02C344.718 45.8699 344.488 46.3198 344.138 46.7323C344.038 46.851 343.838 47.0885 342.884 47.1385C342.434 47.1635 342.191 47.1197 342.097 47.0947C341.954 46.9323 341.766 46.6698 341.766 45.8949V40.8454Z" fill="#FCEE21"/>
<path d="M364.246 18.5479C364.134 18.4542 364.022 18.3604 363.909 18.2667C361.101 15.942 357.806 14.2234 354.123 13.1548C350.591 12.1299 346.815 11.7174 342.89 11.9362C338.989 12.1486 335.245 12.961 331.762 14.3546C328.18 15.7857 324.991 17.798 322.276 20.3415C319.53 22.9162 317.321 26.0283 315.704 29.5904C315.536 29.9592 315.386 30.3279 315.236 30.7028V13.6047L286.703 15.1671V15.9795L242.816 18.3792V17.5668L214.283 19.1291V64.2178C212.298 60.7807 210.538 57.3373 209.028 53.9565L208.965 53.819C208.691 53.2441 208.485 52.4441 208.366 51.5067C208.192 50.1507 208.104 48.8008 208.104 47.5072V20.279L178.466 21.8976V48.4008C178.466 49.6882 178.379 51.0505 178.204 52.4441C178.079 53.4565 177.854 54.3127 177.549 54.9939L177.492 55.1188C175.664 59.4184 173.355 63.9866 170.64 68.7048C167.881 73.4918 164.792 78.3475 161.453 83.1345L157.815 88.3526L179.602 104.582L183.509 99.2889C186.236 95.5956 188.988 91.721 191.678 87.7715C192.29 86.8778 192.883 85.9841 193.463 85.103C193.925 85.7529 194.393 86.4091 194.873 87.0653C197.52 90.6899 200.284 94.2582 203.086 97.6766L207.561 103.132L214.276 96.7392V104.232L242.81 102.67V74.7104L243.403 76.0228V102.632L316.416 98.639V94.8082L364.24 92.196V96.0268L392.774 94.4645V9.36145L364.24 10.9238V18.5479H364.246Z" fill="#FCEE21"/>
<path d="M535.466 1.56233V5.55563L529.444 5.88684V0.0124986L500.118 1.61857V7.48666L489.215 8.08035V4.08704L460.681 5.64937V6.05557L439.225 7.23044L410.691 8.79277V57.4686L416.676 57.1436V93.0834L489.215 89.1151V51.313L491.462 54.4877V73.7543L535.466 71.3483V87.0778L564 85.5155V0L535.466 1.56233Z" fill="#FCEE21"/>
<path d="M65.0368 102.964L48.5046 103.87V53.0941L40.9468 53.5065V38.8394L65.0368 37.5208V102.964Z" fill="#CA4491"/>
<path d="M115.894 72.3919L74.4045 74.6604V35.1336L115.894 32.8651V72.3919ZM138.643 102.77L78.7358 106.044V79.2287L94.1634 78.385V91.8335L138.643 89.4025V102.77ZM100.467 59.7871V47.1572L89.8384 47.7384V60.3683L100.467 59.7871ZM137.463 82.4595L122.035 83.3032V31.7152L137.463 30.8716V45.2137L145.177 44.7887V58.481L137.463 58.9059V82.4595Z" fill="#662D91"/>
<path d="M208.154 94.4832C205.427 91.1523 202.762 87.7152 200.166 84.1656C197.569 80.616 195.273 77.1539 193.276 73.7855C191.279 77.3726 188.944 81.1284 186.267 85.0468C183.59 88.9713 180.912 92.7396 178.235 96.3642L166.82 87.8589C170.284 82.8907 173.448 77.9226 176.307 72.9544C179.165 67.9924 181.568 63.2242 183.509 58.6622C184.083 57.3811 184.482 55.9063 184.688 54.2377C184.894 52.5691 185 50.9506 185 49.3695V29.0843L201.532 28.1781V48.4696C201.532 50.0444 201.639 51.6567 201.844 53.3003C202.057 54.9439 202.45 56.375 203.024 57.5936C204.965 61.9431 207.262 66.3113 209.914 70.7046C212.56 75.0979 215.543 79.6224 218.851 84.2718L208.154 94.4832ZM236.263 97.4266L220.836 98.2703V26.3096L236.263 25.4659V97.4266Z" fill="#662D91"/>
<path d="M285.854 41.2579C285.854 45.0075 285.043 48.1509 283.414 50.6818C281.785 53.2128 279.213 55.45 275.7 57.3811C271.344 59.7371 266.894 62.0618 262.357 64.3428C257.82 66.63 253.002 68.861 247.909 71.042L242.398 58.7934C247.066 56.5312 251.647 54.2127 256.135 51.8504C260.622 49.4882 264.678 47.226 268.298 45.0762C269.035 44.6575 269.571 44.1076 269.914 43.4389C270.258 42.7702 270.426 42.0265 270.426 41.2079V37.9458L245.631 39.3018V25.7721L285.86 23.5724V41.2579H285.854ZM309.869 93.4021L249.962 96.6767V71.9045L265.39 71.0608V82.472L309.869 80.041V93.4021ZM308.683 73.0918L293.256 73.9355V22.3537L308.683 21.5101V38.7082L316.397 38.2895V51.9817L308.683 52.4004V73.0918Z" fill="#662D91"/>
<path d="M386.227 89.2275L370.799 90.0712V79.3161L364.109 86.6091L319.711 89.0401V75.3478L370.806 72.5544V18.1105L386.233 17.2668V89.2275H386.227ZM366.705 45.145C366.705 48.6258 366.075 51.7567 364.814 54.5377C363.554 57.3248 361.862 59.7121 359.74 61.6994C357.612 63.6929 355.135 65.249 352.301 66.3863C349.468 67.5175 346.447 68.1736 343.246 68.3486C340.044 68.5236 337.023 68.1986 334.19 67.3737C331.357 66.5488 328.879 65.2615 326.751 63.5054C324.623 61.7494 322.931 59.5434 321.671 56.8999C320.41 54.2502 319.78 51.188 319.78 47.7134V42.664C319.78 39.1894 320.41 36.0585 321.671 33.2713C322.931 30.4841 324.623 28.0969 326.751 26.1096C328.879 24.1161 331.357 22.56 334.19 21.4226C337.023 20.2915 340.044 19.6353 343.246 19.4603C346.447 19.2853 349.461 19.6103 352.301 20.429C355.135 21.2539 357.612 22.5412 359.74 24.3035C361.868 26.0596 363.56 28.2656 364.814 30.9153C366.075 33.565 366.705 36.6272 366.705 40.1018V45.145ZM351.278 40.9392C351.278 38.6582 350.566 36.7521 349.149 35.2273C347.733 33.7025 345.767 33.0088 343.246 33.1463C340.724 33.2838 338.758 34.1962 337.342 35.871C335.925 37.5521 335.213 39.5331 335.213 41.8141V46.8698C335.213 49.1508 335.919 51.0568 337.342 52.5816C338.758 54.1065 340.724 54.8001 343.246 54.6626C345.767 54.5252 347.733 53.619 349.149 51.938C350.566 50.2569 351.278 48.2759 351.278 45.9949V40.9392Z" fill="#662D91"/>
<path d="M423.229 87.1215L482.662 83.8719V50.3756L467.234 51.2193V56.8437L440.236 58.3185L423.229 64.1241V87.1215ZM467.234 67.7674V72.9856L438.657 74.5479V69.3298L467.234 67.7674Z" fill="#CA4491"/>
<path d="M482.662 48.0134V43.8389L468.102 48.8133L482.662 48.0134Z" fill="#CA4491"/>
<path d="M438.657 52.7816L423.229 53.6253V64.1241L440.236 58.3185L438.657 58.406V52.7816Z" fill="#662D91"/>
<path d="M467.234 12.8361V23.5911L458.734 24.0536V13.711L443.306 14.5546V20.9102L432.678 21.4914V15.1358L417.25 15.9795V51.513L458.74 49.2445V37.4271L467.24 36.9646V48.8633L468.108 48.8133L482.668 43.8451V11.9924L467.234 12.8361ZM443.3 37.9395L432.672 38.5207V32.6526L443.3 32.0714V37.9395Z" fill="#662D91"/>
<path d="M498.014 67.7924L542.019 65.3865V81.116L557.447 80.2723V51.5005L498.014 54.7564V67.7924Z" fill="#CA4491"/>
<path d="M537.844 25.3534V25.0097L536.64 25.4222L537.844 25.3534Z" fill="#662D91"/>
<path d="M497.066 52.0317C500.58 50.0444 503.806 48.1196 506.752 46.2448C509.691 44.3701 512.469 42.414 515.096 40.3705C517.773 42.0703 520.501 43.6639 523.284 45.1387C526.068 46.6198 529.007 48.1134 532.103 49.6257L540.21 38.7519C537.582 37.3208 534.88 35.7273 532.103 33.9775C529.538 32.3651 527.26 30.8153 525.231 29.3092L489.602 41.4704L497.066 52.0317Z" fill="#CA4491"/>
<path d="M522.891 13.786V7.91786L506.671 8.80526V14.6734L491.48 15.5045V27.8906L506.596 27.0657C506.49 27.8344 506.24 28.5093 505.847 29.103C505.454 29.6967 504.886 30.3091 504.156 30.9465C501.896 32.8088 499.55 34.5524 497.11 36.1835C494.669 37.8145 492.086 39.4581 489.358 41.1329L489.602 41.4766L525.231 29.3155C525.057 29.1842 524.876 29.053 524.701 28.928C524.177 28.5781 523.783 28.1781 523.521 27.7281C523.259 27.2844 523.072 26.7595 522.972 26.1721L536.64 25.4222L537.85 25.0097V12.9673L522.891 13.786Z" fill="#662D91"/>
<path d="M542.019 23.5849V49.9007L557.447 49.057V18.3167L542.019 23.5849Z" fill="#CA4491"/>
<path d="M557.447 7.90536L542.019 8.74902V23.5849L557.447 18.3167V7.90536Z" fill="#662D91"/>
<path d="M0 58.9059L34.5249 107.663L9.13674 52.1817L0 58.9059Z" fill="#FCEE21"/>
<path d="M0.0498047 92.9021L30.0126 110.419L2.5649 86.4653L0.0498047 92.9021Z" fill="#FCEE21"/>
</g>
<defs>
<clipPath id="clip0_3_0">
<rect width="564" height="112" fill="white"/>
</clipPath>
</defs>
</svg>
