<svg width="125" height="25" viewBox="0 0 125 25" fill="none" xmlns="http://www.w3.org/2000/svg">
<g clip-path="url(#clip0_3_103)">
<path d="M26.16 6.35986V17.5819C26.16 19.6286 25.4325 21.3758 23.9775 22.8135C22.5425 24.2712 20.7985 25 18.7555 25C16.4434 25 14.5599 24.1115 13.085 22.3443C11.6001 24.1115 9.69664 25 7.39456 25C5.35159 25 3.60759 24.2712 2.17253 22.8135C0.727497 21.3758 0 19.6386 0 17.5819V6.35986H3.46807V17.5819C3.46807 18.6702 3.85673 19.5987 4.62409 20.3674C5.39145 21.1362 6.31826 21.5256 7.40453 21.5256C8.49079 21.5256 9.4176 21.1462 10.185 20.3974C10.9523 19.6286 11.351 18.7001 11.3609 17.6119V6.35986H14.829V17.6119C14.829 18.7001 15.2177 19.6286 15.985 20.3974C16.7524 21.1462 17.6792 21.5256 18.7654 21.5256C19.8517 21.5256 20.7785 21.1362 21.5459 20.3674C22.3132 19.5987 22.7019 18.6702 22.7019 17.5819V6.35986H26.16Z" fill="white"/>
<path d="M39.1853 17.4221C39.574 18.6102 40.2616 19.5987 41.2582 20.3674C42.2946 21.1362 43.4506 21.5256 44.7462 21.5256C45.7826 21.5256 46.8091 21.286 47.8455 20.8167C48.9318 20.3275 49.729 19.7085 50.2373 18.9497L53.0974 20.8966C52.2703 22.1246 51.0744 23.113 49.4998 23.8618C47.9452 24.6106 46.3606 24.99 44.7462 24.99C42.175 24.99 39.9826 24.0815 38.1588 22.2544C36.3351 20.4273 35.4282 18.2408 35.4282 15.6849C35.4282 13.109 36.3351 10.9126 38.1588 9.08548C39.9826 7.2584 42.175 6.34985 44.7462 6.34985C47.2974 6.34985 49.4898 7.2584 51.3036 9.08548C53.1273 10.9126 54.0342 13.109 54.0342 15.6849C54.0342 16.264 53.9844 16.8331 53.8748 17.3922L39.1853 17.4221ZM44.7462 9.83428C43.4506 9.83428 42.2846 10.2237 41.2582 10.9924C40.2616 11.7612 39.574 12.7496 39.1853 13.9577H50.2871C49.8984 12.7496 49.2108 11.7612 48.2142 10.9924C47.1778 10.2137 46.0218 9.83428 44.7462 9.83428Z" fill="white"/>
<path d="M63.073 25V15.6949C63.073 13.119 63.9799 10.9226 65.8036 9.09549C67.6273 7.26841 69.8098 6.35986 72.361 6.35986C74.9322 6.35986 77.1247 7.26841 78.9484 9.09549C80.7721 10.9226 81.679 13.119 81.679 15.6949V25H78.2109V15.6949C78.2109 14.0875 77.6329 12.6997 76.4769 11.5416C75.3408 10.4034 73.9655 9.8343 72.361 9.8343C70.7566 9.8343 69.3813 10.4034 68.2452 11.5416C67.1091 12.6997 66.5411 14.0875 66.5411 15.6949V25H63.073Z" fill="white"/>
<path d="M90.718 0H94.1861V3.36462H90.718V0ZM90.718 6.35982H94.1861V25H90.718V6.35982Z" fill="white"/>
<path d="M125 6.35986L117.127 23.2628C116.599 24.421 115.702 25 114.426 25C113.151 25 112.244 24.421 111.696 23.2628L103.823 6.35986H107.65L113.968 19.9182C114.058 20.1079 114.207 20.2077 114.416 20.2077C114.626 20.2077 114.775 20.1079 114.865 19.9182L121.183 6.35986H125Z" fill="white"/>
</g>
<defs>
<clipPath id="clip0_3_103">
<rect width="125" height="25" fill="white"/>
</clipPath>
</defs>
</svg>
