<svg width="22" height="22" viewBox="0 0 22 22" fill="none" xmlns="http://www.w3.org/2000/svg">
<path d="M21.5 10.4167C21.504 11.9565 21.1442 13.4756 20.45 14.85C19.6268 16.4971 18.3614 17.8824 16.7954 18.8509C15.2293 19.8193 13.4246 20.3327 11.5833 20.3334C10.0435 20.3374 8.52447 19.9776 7.15 19.2834L0.5 21.5L2.71667 14.85C2.02242 13.4756 1.66265 11.9565 1.66667 10.4167C1.66738 8.57542 2.18071 6.77069 3.14917 5.20468C4.11763 3.63866 5.50296 2.3732 7.15 1.55003C8.52447 0.855786 10.0435 0.496018 11.5833 0.500033H12.1667C14.5984 0.63419 16.8952 1.66059 18.6173 3.3827C20.3394 5.10482 21.3658 7.40163 21.5 9.83337V10.4167Z" fill="#F2C94C"/>
</svg>
