<svg width="22" height="22" viewBox="0 0 22 22" fill="none" xmlns="http://www.w3.org/2000/svg">
<path d="M21.9977 10.9992C21.9977 13.9266 21.9977 16.8548 21.9977 19.7837C21.9977 21.0883 21.0909 21.9995 19.7863 22C13.9402 22 8.09426 22 2.2485 22C0.929735 22 0.00436495 21.091 0.00327372 19.776C-0.00109124 13.9197 -0.00109124 8.06465 0.00327372 2.21086C0.00327372 0.905731 0.926461 0.000545621 2.22667 0H19.7672C21.1078 0 21.9999 0.898638 21.9999 2.24632C22.0003 5.16103 21.9995 8.07865 21.9977 10.9992ZM9.25206 11.0423C9.34373 11.0827 9.37919 11.1705 9.42885 11.2409C10.4835 12.7223 11.5404 14.2014 12.5858 15.6888C12.7309 15.8956 12.8826 15.99 13.1423 15.9862C14.1244 15.9712 15.1066 15.9712 16.0887 15.9862C16.3549 15.9894 16.4297 15.8972 16.4291 15.6397C16.4226 12.5391 16.4226 9.43852 16.4291 6.33794C16.4291 6.08968 16.3506 6.00456 16.1018 6.00784C15.1289 6.01875 14.1561 6.02093 13.1833 6.00784C12.9104 6.00347 12.8226 6.08641 12.8248 6.36358C12.8373 7.81821 12.8308 9.27284 12.8308 10.7286C12.8308 10.8191 12.8308 10.9102 12.8308 11.0014C12.8308 11.0456 12.8362 11.1001 12.7877 11.1214C12.72 11.1509 12.6911 11.0892 12.6595 11.0488C12.6142 10.9943 12.5765 10.9299 12.5356 10.8699C11.4844 9.33085 10.4342 7.79111 9.38519 6.25064C9.27007 6.0804 9.14349 6.00893 8.93833 6.01057C7.92894 6.01857 6.91954 6.01857 5.91015 6.01057C5.67062 6.01057 5.57459 6.07004 5.57514 6.33084C5.5835 9.44052 5.5835 12.5506 5.57514 15.661C5.57514 15.9092 5.6477 15.9927 5.90251 15.9883C6.89335 15.9763 7.88438 15.9763 8.87559 15.9883C9.13312 15.9916 9.22206 15.9196 9.21987 15.6522C9.20842 14.2156 9.21387 12.779 9.21605 11.3418C9.21114 11.2414 9.18004 11.1389 9.25425 11.0396L9.25206 11.0423Z" fill="#00BF18"/>
</svg>
