<svg width="64" height="72" viewBox="0 0 64 72" fill="none" xmlns="http://www.w3.org/2000/svg">
<g id="Frame 11">
<g id="Group">
<path id="Vector" d="M31.577 34.9134C31.0928 33.3337 31.8728 31.7561 33.0739 31.1549C34.3803 30.5009 36.4026 30.599 37.6021 32.9316C37.1696 31.166 38.1621 29.7228 39.3131 29.2037C40.6876 28.5831 42.6378 28.9959 43.6685 31.0672C43.5829 30.4988 43.5301 30.003 43.6501 29.5122C43.9581 28.2552 44.7499 27.4332 45.9855 27.1504C47.3797 26.832 48.5203 27.3638 49.3127 28.5415C50.0802 29.6822 50.7795 30.8707 51.5018 32.0419C52.3006 33.3363 53.1115 34.6228 53.7725 35.999C54.571 37.6601 55.1737 39.3846 55.6306 41.1716C56.4217 44.2684 56.4041 47.4007 56.1702 50.5451C56.0694 51.8985 55.4167 52.9821 54.2895 53.7108C52.0777 55.1407 49.8476 56.5441 47.6017 57.9203C46.9446 58.3227 46.1721 58.4609 45.4005 58.5284C43.4501 58.6995 41.5376 58.4304 39.6365 58.0107C35.8374 57.1715 32.316 55.6091 28.9011 53.7764C27.2587 52.8948 25.6274 51.9923 24.051 50.9933C22.1604 49.7946 22.0841 47.0607 23.9273 45.826C24.9751 45.1247 26.0905 45.122 27.185 45.7225C28.7116 46.5593 30.2168 47.4364 31.7319 48.295C31.8989 48.3897 32.0767 48.4891 32.2504 48.3151C32.4736 48.092 32.2932 47.8973 32.1802 47.7157C30.9671 45.7687 29.7476 43.826 28.5316 41.8807C25.5898 37.1746 22.6462 32.4692 19.7081 27.7612C18.6715 26.0999 19.1237 24.2099 20.7812 23.2145C22.0568 22.4487 23.9288 22.85 24.7937 24.1457C25.762 25.5971 26.665 27.0925 27.593 28.5707C28.8658 30.5982 30.1352 32.6282 31.4063 34.657C31.4517 34.731 31.5028 34.803 31.577 34.9134Z" fill="#FCEE21"/>
<path id="Vector_2" d="M22.9533 18.1154C22.8519 17.8792 22.8737 17.6133 22.9346 17.348C23.3028 15.7363 23.6681 14.1241 24.0431 12.5135C24.204 11.8221 24.8117 11.4219 25.49 11.5383C26.1014 11.643 26.5653 12.2593 26.462 12.9351C26.3468 13.6847 26.1606 14.4233 26.0004 15.1657C25.807 16.0613 25.6143 16.9567 25.4086 17.8494C25.2227 18.6563 24.6838 19.0655 23.9574 18.9735C23.484 18.9144 23.1247 18.6129 22.9533 18.1154Z" fill="#FCEE21"/>
<path id="Vector_3" d="M15.2422 23.6719C15.4063 24.1669 15.2858 24.5745 14.9852 24.9455C14.6484 25.361 14.1972 25.4294 13.7169 25.3236C12.4997 25.0546 11.2879 24.7646 10.0733 24.4826C9.69382 24.3946 9.31149 24.3168 8.93624 24.2144C8.1991 24.0137 7.79507 23.3909 7.94136 22.7024C8.07825 22.0542 8.73107 21.627 9.45724 21.7816C11.1003 22.1318 12.7369 22.5142 14.3744 22.8913C14.8103 22.9911 15.0836 23.2889 15.2422 23.6719Z" fill="#FCEE21"/>
<path id="Vector_4" d="M29.8147 22.6457C29.1856 22.8597 28.5526 22.6087 28.2794 22.0781C27.9654 21.4684 28.0878 20.8436 28.6451 20.4836C30.0724 19.5621 31.5064 18.6497 32.953 17.7593C33.5898 17.3675 34.2892 17.5571 34.6687 18.162C35.0181 18.719 34.8719 19.4323 34.268 19.8292C32.8572 20.7556 31.4285 21.6548 30.0048 22.5622C29.93 22.6094 29.8424 22.634 29.8147 22.6457Z" fill="#FCEE21"/>
<path id="Vector_5" d="M18.9289 18.3901C19.1396 19.0014 18.9068 19.6337 18.4168 19.8921C17.8333 20.1993 17.1485 20.0659 16.8123 19.5414C15.8715 18.0733 14.9395 16.6001 14.0184 15.1195C13.6542 14.5342 13.8385 13.8005 14.4016 13.4428C14.9856 13.0721 15.6801 13.2085 16.0658 13.8092C16.9962 15.2573 17.9093 16.7165 18.8267 18.172C18.8804 18.2559 18.9128 18.3536 18.9289 18.3901Z" fill="#FCEE21"/>
<path id="Vector_6" d="M9.73384 33.5799C9.54266 33.0373 9.74451 32.4727 10.2982 32.1103C11.3202 31.4429 12.353 30.7924 13.3817 30.1363C13.7463 29.9034 14.1094 29.6682 14.4796 29.4433C15.0945 29.0698 15.8094 29.2369 16.2019 29.8366C16.5727 30.404 16.4141 31.1202 15.795 31.5265C14.8215 32.1665 13.8343 32.7855 12.8528 33.4126C12.4228 33.6873 11.9935 33.9639 11.56 34.2327C10.8688 34.6611 10.005 34.3497 9.73384 33.5799Z" fill="#FCEE21"/>
</g>
</g>
</svg>
