<svg width="223" height="225" viewBox="0 0 223 225" fill="none" xmlns="http://www.w3.org/2000/svg">
<g id="&#236;&#139;&#156;&#234;&#179;&#132;">
<path id="Vector" d="M222.3 112.618C222.482 174.4 172.176 225.144 111.262 225C50.5848 224.859 0.591371 174.143 0.698169 112.281C0.804967 50.6679 50.7707 -0.0882192 111.693 0.000115127C172.497 0.0884495 222.609 50.8847 222.3 112.618ZM10.0371 112.402C9.83534 169.084 55.3946 215.419 111.282 215.552C167.323 215.684 212.95 169.381 213.048 112.695C213.147 55.8154 167.521 9.52015 111.669 9.44386C55.7625 9.36355 9.9461 55.5825 10.0371 112.402Z" fill="#FCEE21" fill-opacity="0.15"/>
<path id="Vector_2" d="M111.543 18.1943C161.365 17.7933 204.515 59.9495 204.385 112.566C204.251 165.675 161.716 206.849 111.445 206.808C60.3604 206.768 18.4694 164.083 18.6154 112.201C18.7653 60.0939 61.0548 17.9136 111.543 18.1943ZM115.824 191.111C115.828 191.111 115.836 191.111 115.84 191.111C115.84 192.579 115.907 194.055 115.821 195.518C115.742 196.866 116.203 197.179 117.529 197.091C128.024 196.413 137.944 193.625 147.413 189.025C148.782 188.359 148.743 187.718 148.068 186.579C146.644 184.18 145.291 181.734 143.957 179.283C142.994 177.514 143.294 175.766 144.387 174.19C145.496 172.585 147.177 172.301 148.964 172.537C150.641 172.758 151.58 174.021 152.373 175.329C153.754 177.599 155.048 179.925 156.327 182.259C156.859 183.226 157.36 183.434 158.331 182.748C166.976 176.604 174.398 169.236 180.269 160.289C180.983 159.202 180.699 158.684 179.681 158.123C177.317 156.815 174.95 155.5 172.669 154.048C170.069 152.396 169.363 149.676 170.76 147.346C172.121 145.08 174.946 144.483 177.503 145.95C179.732 147.23 181.973 148.493 184.159 149.849C185.355 150.591 186.057 150.37 186.574 149.063C187.359 147.081 188.251 145.148 189.028 143.163C192.035 135.479 193.696 127.477 194.442 119.259C194.588 117.639 194.106 116.961 192.402 117.033C189.715 117.15 187.016 117.106 184.325 117.037C181.977 116.981 180.375 115.489 180.001 113.171C179.547 110.368 181.504 107.993 184.704 107.769C187.253 107.592 189.829 107.624 192.386 107.713C194.071 107.769 194.647 107.067 194.426 105.455C194.158 103.473 193.941 101.484 193.672 99.5028C192.556 91.2328 190.015 83.408 186.578 75.8518C185.935 74.4361 185.335 74.3077 184.076 75.1259C181.973 76.4895 179.776 77.7008 177.586 78.912C174.717 80.4962 172.089 79.8946 170.752 77.416C169.446 75.0016 170.353 72.3264 173.088 70.6821C175.12 69.4548 177.156 68.2235 179.255 67.1246C180.758 66.3385 181.046 65.6407 179.981 64.1006C174.027 55.4776 166.747 48.2504 158.276 42.2103C157.238 41.4683 156.768 41.5886 156.181 42.6916C154.871 45.1581 153.521 47.6086 152.038 49.9709C150.483 52.4495 148.238 53.1233 145.95 52.0204C143.46 50.8212 142.635 48.0338 144.075 45.1822C145.152 43.0485 146.411 41.0031 147.603 38.9295C148.897 36.6796 148.917 36.6595 146.53 35.5004C137.419 31.0806 127.78 28.6823 117.762 27.6996C116.286 27.5553 115.765 28.0847 115.813 29.5887C115.899 32.1916 115.856 34.7985 115.828 37.4015C115.797 40.3974 114.041 42.4068 111.417 42.5071C108.778 42.6113 106.82 40.7544 106.607 37.7664C106.473 35.9055 106.556 34.0285 106.556 32.1595C106.552 27.7197 106.544 27.6234 102.232 28.0686C92.8726 29.0352 83.9436 31.59 75.4644 35.7691C74.036 36.475 73.8466 37.209 74.6437 38.5525C76.0365 40.8948 77.3543 43.2851 78.6169 45.6996C79.5955 47.5766 79.2522 49.626 77.8751 51.0658C76.4823 52.5177 74.4779 52.9549 72.8247 52.1006C71.495 51.4148 70.5678 50.2918 69.8418 48.9923C68.6384 46.8466 67.4073 44.7169 66.2591 42.5391C65.7699 41.6087 65.3201 41.4683 64.4402 42.0779C55.5901 48.1982 48.2157 55.8105 42.1117 64.7262C41.4528 65.6888 41.6028 66.158 42.5971 66.7155C45.1775 68.1714 47.8014 69.5912 50.2122 71.3077C52.6427 73.0363 53.0057 75.5831 51.5063 77.7689C50.003 79.9588 47.5962 80.432 45.0631 78.9922C43.0587 77.8532 41.0701 76.674 39.0815 75.5069C36.8285 74.1874 36.7575 74.1834 35.6251 76.6018C31.3441 85.7462 29.0358 95.4119 28.0968 105.471C27.9311 107.227 28.302 107.725 29.971 107.717C32.7921 107.705 35.6251 107.444 38.4304 107.881C41.3108 108.33 42.6996 110.147 42.4826 113.015C42.3051 115.377 40.3914 117.021 37.7163 117.054C35.0214 117.086 32.3265 117.114 29.6356 117.046C28.1915 117.009 27.8048 117.539 28.0613 118.971C28.3809 120.735 28.4479 122.548 28.6886 124.333C29.8447 132.924 32.216 141.15 35.8973 148.987C36.5129 150.298 37.0929 150.667 38.4186 149.817C40.5808 148.425 42.8338 147.178 45.0907 145.942C47.7816 144.471 50.4529 145.092 51.7865 147.414C53.1122 149.72 52.2876 152.476 49.7111 154.08C47.6396 155.372 45.5602 156.655 43.402 157.79C41.8158 158.624 41.5396 159.35 42.6444 160.954C48.5195 169.477 55.7558 176.56 64.089 182.556C65.3122 183.438 65.8646 183.141 66.4998 181.95C67.7822 179.544 69.0724 177.133 70.5205 174.831C72.1066 172.313 74.8528 171.747 77.2044 173.259C79.2325 174.567 79.773 177.398 78.4157 179.837C77.1255 182.163 75.8392 184.493 74.4582 186.763C73.7796 187.878 73.8979 188.436 75.1132 189.025C84.4052 193.505 94.1233 196.292 104.406 197.05C106.158 197.179 106.686 196.742 106.655 194.933C106.6 191.941 106.3 188.917 106.915 185.945C107.393 183.639 109.436 182.175 111.701 182.408C114.112 182.652 115.702 184.285 115.809 186.711C115.876 188.171 115.824 189.639 115.824 191.111Z" fill="#FCEE21" fill-opacity="0.15"/>
<path id="Vector_3" d="M116.256 86.4804C116.256 93.7645 116.288 101.053 116.232 108.337C116.22 109.923 116.676 111.103 117.807 112.232C124.332 118.761 130.81 125.346 137.28 131.935C139.494 134.192 139.847 136.023 138.617 138.192C137.078 140.906 134.142 141.528 131.723 139.549C130.548 138.585 129.521 137.437 128.446 136.352C123.21 131.068 117.954 125.8 112.773 120.459C111.654 119.307 110.928 119.214 109.699 120.343C97.3618 131.638 84.9773 142.878 72.6007 154.129C71.962 154.711 71.3194 155.285 70.6371 155.815C68.3046 157.626 65.8055 157.381 63.9649 155.189C62.3543 153.27 62.6479 150.495 64.7463 148.559C68.3086 145.279 71.9105 142.034 75.5005 138.782C84.1046 130.98 92.7126 123.186 101.321 115.384C101.666 115.071 101.955 114.677 102.344 114.444C106.224 112.115 106.966 108.642 106.874 104.265C106.605 91.3713 106.771 78.4696 106.791 65.5679C106.791 64.3713 106.862 63.1506 107.1 61.9861C107.533 59.882 109.473 58.3963 111.555 58.4043C113.654 58.4123 115.51 59.89 115.947 62.0463C116.169 63.1506 116.244 64.299 116.248 65.4313C116.268 72.4464 116.256 79.4614 116.256 86.4804Z" fill="#FCEE21" fill-opacity="0.15"/>
</g>
</svg>
