<svg width="28" height="28" viewBox="0 0 28 28" fill="none" xmlns="http://www.w3.org/2000/svg">
<path d="M24.9977 13.9992C24.9977 16.9266 24.9977 19.8548 24.9977 22.7837C24.9977 24.0883 24.0909 24.9995 22.7863 25C16.9402 25 11.0943 25 5.2485 25C3.92973 25 3.00436 24.091 3.00327 22.776C2.99891 16.9197 2.99891 11.0646 3.00327 5.21086C3.00327 3.90573 3.92646 3.00055 5.22667 3H22.7672C24.1078 3 24.9999 3.89864 24.9999 5.24632C25.0003 8.16103 24.9995 11.0787 24.9977 13.9992ZM12.2521 14.0423C12.3437 14.0827 12.3792 14.1705 12.4288 14.2409C13.4835 15.7223 14.5404 17.2014 15.5858 18.6888C15.7309 18.8956 15.8826 18.99 16.1423 18.9862C17.1244 18.9712 18.1066 18.9712 19.0887 18.9862C19.3549 18.9894 19.4297 18.8972 19.4291 18.6397C19.4226 15.5391 19.4226 12.4385 19.4291 9.33794C19.4291 9.08968 19.3506 9.00456 19.1018 9.00784C18.1289 9.01875 17.1561 9.02093 16.1833 9.00784C15.9104 9.00347 15.8226 9.08641 15.8248 9.36358C15.8373 10.8182 15.8308 12.2728 15.8308 13.7286C15.8308 13.8191 15.8308 13.9102 15.8308 14.0014C15.8308 14.0456 15.8362 14.1001 15.7877 14.1214C15.72 14.1509 15.6911 14.0892 15.6595 14.0488C15.6142 13.9943 15.5765 13.9299 15.5356 13.8699C14.4844 12.3309 13.4342 10.7911 12.3852 9.25064C12.2701 9.0804 12.1435 9.00893 11.9383 9.01057C10.9289 9.01857 9.91954 9.01857 8.91015 9.01057C8.67062 9.01057 8.57459 9.07004 8.57514 9.33084C8.5835 12.4405 8.5835 15.5506 8.57514 18.661C8.57514 18.9092 8.6477 18.9927 8.90251 18.9883C9.89335 18.9763 10.8844 18.9763 11.8756 18.9883C12.1331 18.9916 12.2221 18.9196 12.2199 18.6522C12.2084 17.2156 12.2139 15.779 12.2161 14.3418C12.2111 14.2414 12.18 14.1389 12.2542 14.0396L12.2521 14.0423Z" fill="#00BF18"/>
</svg>
